# xmcd
#
# Track frame offsets: 
#        150
#        12765
#        25530
#        41715
#        61815
#        75995
#        96535
#        113372
#        130402
#        147300
#        162917
#        177555
#
# Disc length: 2557 seconds
#
# Revision: 0
# Processed by: cddbd v1.5PL3 Copyright (c) Steve Scherf et al.
# Submitted via: ExactAudioCopy v0.90b4
#
DISCID=9309fb0c
DTITLE=Billy Sheets - Wake Up And Live
DYEAR=2000
DGENRE=Blues
TTITLE0=Come Out Swingin'
TTITLE1=Ships Passing In The Night
TTITLE2=Only You For Me
TTITLE3=Dancing On A Cliff
TTITLE4=Wake Up And Live
TTITLE5=Safecracker
TTITLE6=Welcome To The Club
TTITLE7=Kick Down, Baby
TTITLE8=Move Out
TTITLE9=Why Does It All Break Down
TTITLE10=Morning Breeze
TTITLE11=Pleasing You
EXTD=
EXTT0=
EXTT1=
EXTT2=
EXTT3=
EXTT4=
EXTT5=
EXTT6=
EXTT7=
EXTT8=
EXTT9=
EXTT10=
EXTT11=
PLAYORDER=
